<?xml version="1.0" standalone="no"?>
<svg xmlns:xlink="http://www.w3.org/1999/xlink" id="wave" style="transform:rotate(180deg); transition: 0.3s" viewBox="0 0 1440 110" version="1.1" xmlns="http://www.w3.org/2000/svg"><defs><linearGradient id="sw-gradient-0" x1="0" x2="0" y1="1" y2="0"><stop stop-color="rgba(255, 249, 234, 1)" offset="0%"/><stop stop-color="rgba(255, 249, 234, 1)" offset="100%"/></linearGradient></defs><path style="transform:translate(0, 0px); opacity:1" fill="url(#sw-gradient-0)" d="M0,44L48,38.5C96,33,192,22,288,14.7C384,7,480,4,576,11C672,18,768,37,864,53.2C960,70,1056,84,1152,89.8C1248,95,1344,92,1440,82.5C1536,73,1632,59,1728,58.7C1824,59,1920,73,2016,82.5C2112,92,2208,95,2304,95.3C2400,95,2496,92,2592,91.7C2688,92,2784,95,2880,88C2976,81,3072,62,3168,60.5C3264,59,3360,73,3456,82.5C3552,92,3648,95,3744,93.5C3840,92,3936,84,4032,67.8C4128,51,4224,26,4320,12.8C4416,0,4512,0,4608,9.2C4704,18,4800,37,4896,47.7C4992,59,5088,62,5184,64.2C5280,66,5376,66,5472,67.8C5568,70,5664,73,5760,77C5856,81,5952,84,6048,80.7C6144,77,6240,66,6336,66C6432,66,6528,77,6624,71.5C6720,66,6816,44,6864,33L6912,22L6912,110L6864,110C6816,110,6720,110,6624,110C6528,110,6432,110,6336,110C6240,110,6144,110,6048,110C5952,110,5856,110,5760,110C5664,110,5568,110,5472,110C5376,110,5280,110,5184,110C5088,110,4992,110,4896,110C4800,110,4704,110,4608,110C4512,110,4416,110,4320,110C4224,110,4128,110,4032,110C3936,110,3840,110,3744,110C3648,110,3552,110,3456,110C3360,110,3264,110,3168,110C3072,110,2976,110,2880,110C2784,110,2688,110,2592,110C2496,110,2400,110,2304,110C2208,110,2112,110,2016,110C1920,110,1824,110,1728,110C1632,110,1536,110,1440,110C1344,110,1248,110,1152,110C1056,110,960,110,864,110C768,110,672,110,576,110C480,110,384,110,288,110C192,110,96,110,48,110L0,110Z"/></svg>